<svg width="70" height="63" viewBox="0 0 70 63" fill="none" xmlns="http://www.w3.org/2000/svg">
<path opacity="0.56" d="M0 63V51.975C0 49.7438 0.495833 47.6936 1.4875 45.8246C2.47917 43.9556 3.85 42.5276 5.6 41.5406C9.1 39.5719 12.7318 38.0625 16.4955 37.0125C20.2592 35.9625 24.094 35.4375 28 35.4375C29.4583 35.4375 30.9167 35.553 32.375 35.784C33.8333 36.015 35.2917 36.2933 36.75 36.6188V42.8203C34.125 44.2641 32.011 46.1672 30.408 48.5297C28.805 50.8922 28.0023 53.9766 28 57.7828V63H0ZM35 63V57.4875C35 55.9125 35.3652 54.453 36.0955 53.109C36.8258 51.765 37.8607 50.7964 39.2 50.2031C41.3 49.2188 43.4735 48.4811 45.7205 47.9902C47.9675 47.4994 50.2273 47.2526 52.5 47.25C54.775 47.25 57.036 47.4967 59.283 47.9902C61.53 48.4837 63.7023 49.2214 65.8 50.2031C67.1416 50.7938 68.1777 51.7624 68.908 53.109C69.6383 54.4556 70.0023 55.9151 70 57.4875V63H35ZM52.5 43.3125C50.05 43.3125 47.9792 42.3609 46.2875 40.4578C44.5958 38.5547 43.75 36.225 43.75 33.4688C43.75 30.7125 44.5958 28.3828 46.2875 26.4797C47.9792 24.5766 50.05 23.625 52.5 23.625C54.95 23.625 57.0208 24.5766 58.7125 26.4797C60.4042 28.3828 61.25 30.7125 61.25 33.4688C61.25 36.225 60.4042 38.5547 58.7125 40.4578C57.0208 42.3609 54.95 43.3125 52.5 43.3125ZM28 31.5C24.15 31.5 20.8542 29.9578 18.1125 26.8734C15.3708 23.7891 14 20.0812 14 15.75C14 11.4187 15.3708 7.71094 18.1125 4.62656C20.8542 1.54219 24.15 0 28 0C31.85 0 35.1458 1.54219 37.8875 4.62656C40.6292 7.71094 42 11.4187 42 15.75C42 20.0812 40.6292 23.7891 37.8875 26.8734C35.1458 29.9578 31.85 31.5 28 31.5Z" fill="#FFFAF1"/>
</svg>
