<svg width="19" height="19" viewBox="0 0 19 19" fill="none" xmlns="http://www.w3.org/2000/svg">
<path d="M5.31928 0.263428H13.0231C15.9578 0.263428 18.3423 2.64793 18.3423 5.58271V13.2865C18.3423 14.6973 17.7819 16.0502 16.7844 17.0478C15.7868 18.0453 14.4338 18.6058 13.0231 18.6058H5.31928C2.3845 18.6058 0 16.2213 0 13.2865V5.58271C0 4.17195 0.560423 2.81897 1.55798 1.82141C2.55554 0.82385 3.90852 0.263428 5.31928 0.263428ZM5.13586 2.09766C4.26021 2.09766 3.42043 2.44551 2.80126 3.06468C2.18208 3.68386 1.83423 4.52364 1.83423 5.39928V13.4699C1.83423 15.295 3.31079 16.7715 5.13586 16.7715H13.2065C14.0821 16.7715 14.9219 16.4237 15.5411 15.8045C16.1603 15.1853 16.5081 14.3456 16.5081 13.4699V5.39928C16.5081 3.57422 15.0315 2.09766 13.2065 2.09766H5.13586ZM13.986 3.47334C14.2901 3.47334 14.5817 3.59412 14.7967 3.80911C15.0117 4.0241 15.1324 4.31569 15.1324 4.61973C15.1324 4.92378 15.0117 5.21537 14.7967 5.43036C14.5817 5.64535 14.2901 5.76613 13.986 5.76613C13.682 5.76613 13.3904 5.64535 13.1754 5.43036C12.9604 5.21537 12.8396 4.92378 12.8396 4.61973C12.8396 4.31569 12.9604 4.0241 13.1754 3.80911C13.3904 3.59412 13.682 3.47334 13.986 3.47334ZM9.17117 4.84901C10.3873 4.84901 11.5537 5.33214 12.4137 6.1921C13.2736 7.05206 13.7568 8.21843 13.7568 9.4346C13.7568 10.6508 13.2736 11.8171 12.4137 12.6771C11.5537 13.5371 10.3873 14.0202 9.17117 14.0202C7.955 14.0202 6.78864 13.5371 5.92867 12.6771C5.06871 11.8171 4.58559 10.6508 4.58559 9.4346C4.58559 8.21843 5.06871 7.05206 5.92867 6.1921C6.78864 5.33214 7.955 4.84901 9.17117 4.84901ZM9.17117 6.68325C8.44147 6.68325 7.74165 6.97312 7.22567 7.4891C6.70969 8.00508 6.41982 8.7049 6.41982 9.4346C6.41982 10.1643 6.70969 10.8641 7.22567 11.3801C7.74165 11.8961 8.44147 12.1859 9.17117 12.1859C9.90087 12.1859 10.6007 11.8961 11.1167 11.3801C11.6326 10.8641 11.9225 10.1643 11.9225 9.4346C11.9225 8.7049 11.6326 8.00508 11.1167 7.4891C10.6007 6.97312 9.90087 6.68325 9.17117 6.68325Z" fill="#FFF3DC"/>
</svg>
