<svg width="70" height="63" viewBox="0 0 70 63" fill="none" xmlns="http://www.w3.org/2000/svg">
<path opacity="0.56" d="M12.5125 0.234051C12.9581 0.426829 13.3341 0.728923 13.5973 1.10555C13.8605 1.48217 14.0001 1.91801 14 2.36288C14 4.97669 15.092 6.48199 16.4605 8.3148L16.562 8.44707C17.724 10.0028 19.25 12.0403 19.25 14.9595C19.25 17.9386 17.5805 20.565 15.036 22.1239C15.7045 22.6277 16.296 23.2481 16.807 23.9913C18.473 26.4162 19.25 30.1227 19.25 35.4448C19.25 40.8362 18.445 47.3109 17.1325 52.4818C16.4815 55.0515 15.673 57.4228 14.7105 59.2021C14.2561 60.0874 13.6542 60.9051 12.9255 61.627C12.2045 62.2914 11.095 63 9.625 63C8.155 63 7.0455 62.2914 6.328 61.627C5.59724 60.9066 4.99508 60.0886 4.543 59.2021C3.577 57.4197 2.7685 55.0515 2.1175 52.4786C0.752316 46.8818 0.0426087 41.1716 3.37226e-06 35.4417C3.37226e-06 30.1196 0.777003 26.4162 2.443 23.9913C2.91829 23.2875 3.51626 22.6569 4.214 22.1239C2.91471 21.3302 1.85128 20.2622 1.11669 19.0133C0.382088 17.7644 -0.00131182 16.3726 3.37226e-06 14.9595C3.37226e-06 13.8006 3.02494e-06 11.8072 1.3405 9.23436C2.653 6.71503 5.1485 3.82095 9.7335 0.517476C10.1199 0.239355 10.5859 0.0651769 11.0776 0.0150297C11.5693 -0.0351176 12.0667 0.0408081 12.5125 0.234051ZM28 40.6787C26.1457 40.3989 24.342 39.8947 22.638 39.1797C22.7115 37.9012 22.75 36.6478 22.75 35.4448C22.75 34.1663 22.708 32.9444 22.617 31.7792C24.1675 32.9286 25.998 33.7821 28 34.245V26.7689C28 25.5161 28.5531 24.3146 29.5377 23.4287C30.5223 22.5428 31.8576 22.0451 33.25 22.0451H45.5C45.5003 19.6423 44.7369 17.2895 43.2997 15.2644C41.8625 13.2392 39.8115 11.6261 37.3887 10.6154C34.9659 9.60477 32.2724 9.23866 29.6259 9.5603C26.9795 9.88195 24.4904 10.8779 22.4525 12.4308C21.847 9.86734 20.44 7.99044 19.5405 6.79061L19.4005 6.60166C22.5451 4.60712 26.2382 3.4282 30.0768 3.1936C33.9153 2.95899 37.7518 3.67771 41.1672 5.2713C44.5827 6.86489 47.446 9.2721 49.4445 12.2302C51.4431 15.1882 52.5 18.5834 52.5 22.0451H64.75C66.1424 22.0451 67.4777 22.5428 68.4623 23.4287C69.4469 24.3146 70 25.5161 70 26.7689V55.1114C70 56.3642 69.4469 57.5657 68.4623 58.4515C67.4777 59.3374 66.1424 59.8351 64.75 59.8351H33.25C31.8576 59.8351 30.5223 59.3374 29.5377 58.4515C28.5531 57.5657 28 56.3642 28 55.1114V40.6787ZM35 40.6787V53.5368H63V28.3435H51.3065C50.0554 31.5203 47.8838 34.3387 45.0164 36.5074C42.149 38.676 38.6898 40.1161 34.9965 40.6787M43.6275 28.3435H35V34.245C36.8012 33.8253 38.4916 33.0873 39.9727 32.0742C41.4539 31.061 42.6963 29.7928 43.6275 28.3435Z" fill="#FFFAF1"/>
</svg>
