<svg width="22" height="19" viewBox="0 0 22 19" fill="none" xmlns="http://www.w3.org/2000/svg">
<path d="M12.3756 0.826225C12.2442 0.957817 12.1704 1.1362 12.1704 1.32218C12.1704 1.50817 12.2442 1.68655 12.3756 1.81814L19.5986 9.04228L0.706579 9.04228C0.520443 9.04228 0.34193 9.11622 0.210312 9.24784C0.0786934 9.37945 0.00475121 9.55797 0.00475121 9.7441C0.00475121 9.93024 0.0786934 10.1088 0.210312 10.2404C0.34193 10.372 0.520443 10.4459 0.706579 10.4459L19.5986 10.4459L12.3756 17.6701C12.2517 17.8031 12.1842 17.9791 12.1874 18.1609C12.1906 18.3427 12.2643 18.5162 12.3928 18.6448C12.5214 18.7734 12.6949 18.847 12.8767 18.8502C13.0585 18.8534 13.2345 18.786 13.3676 18.662L21.7895 10.2401C21.9209 10.1085 21.9948 9.93009 21.9948 9.7441C21.9948 9.55812 21.9209 9.37974 21.7895 9.24815L13.3676 0.826225C13.236 0.694796 13.0576 0.620974 12.8716 0.620974C12.6856 0.620974 12.5072 0.694796 12.3756 0.826225Z" fill="#F5F5F5"/>
</svg>
