<svg width="22" height="19" viewBox="0 0 22 19" fill="none" xmlns="http://www.w3.org/2000/svg">
<path d="M21.5792 2.71046C20.7682 3.0623 19.9105 3.29489 19.0329 3.40099C19.9588 2.84783 20.6527 1.97761 20.9858 0.95175C20.1157 1.46972 19.1632 1.83466 18.1697 2.03071C17.5057 1.31058 16.6214 0.831226 15.6555 0.667823C14.6897 0.50442 13.6969 0.666212 12.8329 1.12783C11.969 1.58944 11.2826 2.32476 10.8816 3.21847C10.4805 4.11218 10.3875 5.11372 10.617 6.06603C8.85765 5.97704 7.13672 5.51894 5.56599 4.72149C3.99525 3.92404 2.60984 2.80507 1.49976 1.43728C1.1104 2.11721 0.905809 2.88722 0.906327 3.67073C0.904947 4.39837 1.08351 5.11505 1.42612 5.75697C1.76873 6.3989 2.26476 6.94615 2.87004 7.34999C2.16653 7.33085 1.47805 7.14207 0.863169 6.79972V6.85367C0.868442 7.87317 1.22569 8.85956 1.8745 9.64598C2.5233 10.4324 3.42382 10.9706 4.42374 11.1695C4.03883 11.2867 3.6392 11.3484 3.23688 11.3529C2.95839 11.3497 2.6806 11.3244 2.40608 11.2774C2.69083 12.1544 3.24187 12.9208 3.98253 13.47C4.72318 14.0192 5.61661 14.3239 6.53851 14.3417C4.98178 15.5666 3.05981 16.2351 1.07896 16.2406C0.718302 16.2418 0.35793 16.2202 0 16.1759C2.02244 17.4817 4.3793 18.1749 6.78667 18.172C8.44793 18.1892 10.096 17.8753 11.6346 17.2485C13.1731 16.6217 14.5714 15.6946 15.7477 14.5213C16.9239 13.3481 17.8546 11.9522 18.4854 10.4152C19.1161 8.87825 19.4343 7.23101 19.4213 5.5697V4.99785C20.268 4.36646 20.9982 3.59243 21.5792 2.71046Z" fill="#FFF3DC"/>
</svg>
